<svg xmlns="http://www.w3.org/2000/svg" id="Livello_2" data-name="Livello 2" viewBox="73.73 445.1 923.39 184.21">
  <defs>
    <style>
      .cls-1, .cls-2 {
        stroke: #000;
        stroke-miterlimit: 10;
      }

      .cls-2 {
        stroke-width: 1.42px;
      }
    </style>
  </defs>
  <g>
    <path class="cls-2" d="M231.1,490.04c-1.94-1.94-2.91-4.34-2.91-7.2s.97-5.26,2.91-7.2c1.94-1.94,4.34-2.91,7.2-2.91s5.12.97,7.06,2.91c1.94,1.94,2.91,4.34,2.91,7.2s-.97,5.26-2.91,7.2c-1.94,1.94-4.29,2.91-7.06,2.91s-5.26-.97-7.2-2.91ZM246.05,503.05v76.27h-15.78v-76.27h15.78Z"/>
    <path class="cls-2" d="M262.87,520.42c3.18-5.95,7.59-10.54,13.22-13.77,5.63-3.23,12.09-4.84,19.38-4.84,9.23,0,16.86,2.19,22.91,6.58,6.04,4.38,10.13,10.64,12.25,18.76h-17.03c-1.38-3.78-3.6-6.74-6.64-8.86-3.04-2.12-6.88-3.18-11.49-3.18-6.46,0-11.61,2.28-15.43,6.85-3.83,4.57-5.74,10.96-5.74,19.17s1.91,14.63,5.74,19.24c3.83,4.62,8.97,6.92,15.43,6.92,9.13,0,15.18-4.01,18.13-12.04h17.03c-2.21,7.75-6.37,13.91-12.46,18.48-6.09,4.57-13.66,6.85-22.7,6.85-7.29,0-13.75-1.64-19.38-4.91-5.63-3.27-10.04-7.89-13.22-13.84s-4.78-12.85-4.78-20.69,1.59-14.74,4.78-20.69Z"/>
    <path class="cls-2" d="M356.51,575.65c-5.81-3.27-10.38-7.89-13.7-13.84s-4.98-12.85-4.98-20.69,1.71-14.62,5.12-20.62c3.41-6,8.07-10.61,13.98-13.84,5.9-3.23,12.5-4.84,19.79-4.84s13.89,1.62,19.79,4.84c5.9,3.23,10.57,7.84,13.98,13.84,3.41,6,5.12,12.87,5.12,20.62s-1.75,14.63-5.26,20.62c-3.51,6-8.28,10.64-14.33,13.91-6.04,3.28-12.71,4.91-20,4.91s-13.7-1.64-19.52-4.91ZM387.44,563.96c3.55-1.94,6.44-4.84,8.65-8.72,2.21-3.88,3.32-8.58,3.32-14.12s-1.06-10.22-3.18-14.05c-2.12-3.83-4.94-6.71-8.44-8.65-3.51-1.94-7.29-2.91-11.35-2.91s-7.82.97-11.28,2.91c-3.46,1.94-6.21,4.82-8.24,8.65-2.03,3.83-3.04,8.51-3.04,14.05,0,8.21,2.1,14.56,6.3,19.03,4.2,4.48,9.48,6.71,15.85,6.71,4.06,0,7.87-.97,11.42-2.91Z"/>
    <path class="cls-2" d="M482.4,505.54c4.75,2.49,8.46,6.18,11.14,11.07,2.68,4.89,4.02,10.8,4.02,17.72v44.99h-15.64v-42.63c0-6.83-1.71-12.06-5.12-15.71-3.42-3.64-8.08-5.47-13.98-5.47s-10.59,1.82-14.05,5.47c-3.46,3.65-5.19,8.88-5.19,15.71v42.63h-15.78v-76.27h15.78v8.72c2.58-3.14,5.88-5.58,9.9-7.34,4.01-1.75,8.28-2.63,12.8-2.63,6,0,11.37,1.25,16.12,3.74Z"/>
    <path class="cls-2" d="M513.68,520.42c3.18-5.95,7.59-10.54,13.22-13.77,5.63-3.23,12.09-4.84,19.38-4.84,9.23,0,16.86,2.19,22.91,6.58,6.04,4.38,10.13,10.64,12.25,18.76h-17.03c-1.38-3.78-3.6-6.74-6.64-8.86-3.04-2.12-6.88-3.18-11.49-3.18-6.46,0-11.61,2.28-15.43,6.85-3.83,4.57-5.74,10.96-5.74,19.17s1.91,14.63,5.74,19.24c3.83,4.62,8.97,6.92,15.43,6.92,9.13,0,15.18-4.01,18.13-12.04h17.03c-2.21,7.75-6.37,13.91-12.46,18.48-6.09,4.57-13.66,6.85-22.7,6.85-7.29,0-13.75-1.64-19.38-4.91-5.63-3.27-10.04-7.89-13.22-13.84s-4.78-12.85-4.78-20.69,1.59-14.74,4.78-20.69Z"/>
    <path class="cls-2" d="M594.59,490.04c-1.94-1.94-2.91-4.34-2.91-7.2s.97-5.26,2.91-7.2c1.94-1.94,4.34-2.91,7.2-2.91s5.12.97,7.06,2.91c1.94,1.94,2.91,4.34,2.91,7.2s-.97,5.26-2.91,7.2c-1.94,1.94-4.29,2.91-7.06,2.91s-5.26-.97-7.2-2.91ZM609.54,503.05v76.27h-15.78v-76.27h15.78Z"/>
    <path class="cls-2" d="M642.62,476.89v102.43h-15.78v-102.43h15.78Z"/>
    <path class="cls-2" d="M660.75,490.04c-1.94-1.94-2.91-4.34-2.91-7.2s.97-5.26,2.91-7.2c1.94-1.94,4.34-2.91,7.2-2.91s5.12.97,7.06,2.91c1.94,1.94,2.91,4.34,2.91,7.2s-.97,5.26-2.91,7.2c-1.94,1.94-4.29,2.91-7.06,2.91s-5.26-.97-7.2-2.91ZM675.7,503.05v76.27h-15.78v-76.27h15.78Z"/>
    <path class="cls-2" d="M692.52,520.49c3.18-5.9,7.52-10.5,13.01-13.77,5.49-3.27,11.56-4.91,18.2-4.91,6,0,11.23,1.18,15.71,3.53,4.47,2.35,8.05,5.28,10.73,8.79v-11.07h15.92v76.27h-15.92v-11.35c-2.68,3.6-6.32,6.6-10.94,9-4.62,2.4-9.88,3.6-15.78,3.6-6.55,0-12.55-1.68-17.99-5.05-5.45-3.37-9.76-8.07-12.94-14.12-3.18-6.04-4.78-12.89-4.78-20.56s1.59-14.44,4.78-20.35ZM746.92,527.41c-2.17-3.88-5.01-6.83-8.51-8.86-3.51-2.03-7.29-3.04-11.35-3.04s-7.85.99-11.35,2.98c-3.51,1.99-6.35,4.89-8.51,8.72-2.17,3.83-3.25,8.38-3.25,13.63s1.08,9.88,3.25,13.84c2.17,3.97,5.03,6.99,8.58,9.07,3.55,2.08,7.31,3.11,11.28,3.11s7.84-1.01,11.35-3.04c3.51-2.03,6.34-5,8.51-8.93,2.17-3.92,3.25-8.51,3.25-13.77s-1.09-9.83-3.25-13.7Z"/>
    <path class="cls-2" d="M891.84,505.54c4.75,2.49,8.49,6.18,11.21,11.07,2.72,4.89,4.08,10.8,4.08,17.72v44.99h-15.64v-42.63c0-6.83-1.71-12.06-5.12-15.71-3.41-3.64-8.08-5.47-13.98-5.47s-10.59,1.82-14.05,5.47c-3.46,3.65-5.19,8.88-5.19,15.71v42.63h-15.64v-42.63c0-6.83-1.71-12.06-5.12-15.71-3.41-3.64-8.08-5.47-13.98-5.47s-10.59,1.82-14.05,5.47c-3.46,3.65-5.19,8.88-5.19,15.71v42.63h-15.78v-76.27h15.78v8.72c2.58-3.14,5.86-5.58,9.83-7.34,3.97-1.75,8.21-2.63,12.73-2.63,6.09,0,11.54,1.29,16.33,3.88,4.8,2.58,8.49,6.32,11.07,11.21,2.3-4.61,5.9-8.28,10.8-11,4.89-2.72,10.15-4.08,15.78-4.08,6,0,11.37,1.25,16.13,3.74Z"/>
    <path class="cls-2" d="M937.31,575.65c-5.81-3.27-10.38-7.89-13.7-13.84s-4.98-12.85-4.98-20.69,1.71-14.62,5.12-20.62c3.41-6,8.07-10.61,13.98-13.84,5.9-3.23,12.5-4.84,19.79-4.84s13.89,1.62,19.79,4.84c5.9,3.23,10.57,7.84,13.98,13.84,3.41,6,5.12,12.87,5.12,20.62s-1.75,14.63-5.26,20.62c-3.51,6-8.28,10.64-14.33,13.91-6.04,3.28-12.71,4.91-20,4.91s-13.7-1.64-19.52-4.91ZM968.25,563.96c3.55-1.94,6.44-4.84,8.65-8.72,2.21-3.88,3.32-8.58,3.32-14.12s-1.06-10.22-3.18-14.05c-2.12-3.83-4.94-6.71-8.44-8.65-3.51-1.94-7.29-2.91-11.35-2.91s-7.82.97-11.28,2.91c-3.46,1.94-6.21,4.82-8.24,8.65-2.03,3.83-3.04,8.51-3.04,14.05,0,8.21,2.1,14.56,6.3,19.03,4.2,4.48,9.48,6.71,15.85,6.71,4.06,0,7.87-.97,11.42-2.91Z"/>
  </g>
  <path class="cls-1" d="M212.18,579.33h-15.9c-1.66-15.95-7.12-32.86-17.9-44.87-16.67,8.62-35.23,12.54-53.92,13.62v31.25h-15.35v-30.98l-.92-.72c-16.59-1.2-39.09-14.84-32.91-34.22,4.33-13.57,20.82-20.2,33.78-21.86.84-33.78,35.7-55.59,66.76-41.71,29.12,13.01,36.15,51.39,15.15,74.93,12.15,15.73,19.13,34.76,21.22,54.55ZM124.48,491.59c20.36,1.75,40.06,8.54,55.62,21.94,12.27-14.45,9.59-36.35-6.13-47.05-20.85-14.19-48.65.38-49.5,25.1ZM124.46,532.18c14.67-.24,29.54-3.21,42.75-9.59-12.54-9.29-27.41-13.6-42.75-15.62v25.22ZM109.11,507.51c-5.97.6-19.24,5.11-19.24,12.34s13.38,11.58,19.24,12.34v-24.67Z"/>
  <g>
    <path d="M534.29,628.13c-1.41-.79-2.53-1.89-3.35-3.3s-1.23-3-1.23-4.76.41-3.35,1.23-4.75,1.94-2.5,3.35-3.28,2.96-1.18,4.63-1.18,3.25.39,4.66,1.18c1.41.79,2.52,1.88,3.33,3.28s1.22,2.98,1.22,4.75-.41,3.35-1.22,4.76-1.92,2.51-3.33,3.3c-1.41.79-2.96,1.18-4.66,1.18s-3.22-.39-4.63-1.18ZM542.12,625.92c.93-.54,1.66-1.32,2.19-2.34.53-1.01.79-2.18.79-3.52s-.26-2.5-.79-3.5c-.53-1-1.26-1.77-2.19-2.31-.94-.54-2-.8-3.19-.8s-2.26.27-3.19.8c-.94.54-1.67,1.31-2.19,2.31s-.79,2.17-.79,3.5.26,2.5.79,3.52c.53,1.01,1.26,1.79,2.19,2.34.93.54,2,.82,3.19.82s2.26-.27,3.19-.82Z"/>
    <path d="M565.61,629.13l-4.15-7.21h-2.26v7.21h-2.96v-18.04h6.23c1.38,0,2.56.24,3.52.73.96.48,1.68,1.13,2.15,1.95.48.81.71,1.72.71,2.73,0,1.18-.34,2.25-1.03,3.21-.68.96-1.74,1.61-3.15,1.96l4.46,7.47h-3.53ZM559.2,619.55h3.27c1.11,0,1.94-.28,2.5-.83s.84-1.3.84-2.23-.28-1.67-.83-2.19c-.55-.53-1.39-.79-2.52-.79h-3.27v6.05Z"/>
    <path d="M590.88,616.28c-.47-.9-1.12-1.58-1.95-2.04-.83-.46-1.79-.69-2.88-.69-1.19,0-2.26.27-3.19.8-.93.54-1.66,1.3-2.19,2.28-.53.99-.79,2.13-.79,3.43s.26,2.44.79,3.44c.53,1,1.26,1.76,2.19,2.3.94.54,2,.8,3.19.8,1.61,0,2.92-.45,3.92-1.35,1-.9,1.62-2.12,1.84-3.66h-6.77v-2.36h9.94v2.31c-.19,1.4-.69,2.69-1.49,3.87-.8,1.18-1.85,2.12-3.14,2.82-1.29.7-2.72,1.05-4.29,1.05-1.7,0-3.24-.39-4.65-1.18-1.4-.79-2.51-1.88-3.33-3.28-.82-1.4-1.23-2.98-1.23-4.75s.41-3.35,1.23-4.75c.82-1.4,1.94-2.5,3.35-3.28s2.95-1.18,4.63-1.18c1.92,0,3.63.47,5.12,1.41,1.5.94,2.58,2.28,3.26,4.01h-3.56Z"/>
    <path d="M613.96,625.44h-7.55l-1.3,3.69h-3.09l6.46-18.06h3.43l6.46,18.06h-3.12l-1.3-3.69ZM613.13,623.03l-2.93-8.38-2.96,8.38h5.89Z"/>
    <path d="M641.19,629.13h-2.96l-8.9-13.47v13.47h-2.96v-18.06h2.96l8.9,13.44v-13.44h2.96v18.06Z"/>
    <path d="M653.23,611.09v18.04h-2.96v-18.04h2.96Z"/>
    <path d="M664.98,628.67c-.97-.42-1.73-1.03-2.29-1.8-.55-.78-.83-1.69-.83-2.73h3.17c.07.78.38,1.42.92,1.92s1.31.75,2.3.75,1.82-.25,2.39-.74c.57-.49.86-1.13.86-1.91,0-.61-.18-1.1-.53-1.48-.36-.38-.8-.67-1.32-.88-.53-.21-1.26-.43-2.19-.67-1.18-.31-2.13-.63-2.87-.95-.74-.32-1.36-.82-1.88-1.49s-.78-1.57-.78-2.7c0-1.04.26-1.95.78-2.73.52-.78,1.25-1.38,2.18-1.79.94-.42,2.02-.62,3.25-.62,1.75,0,3.18.44,4.29,1.31,1.12.87,1.73,2.07,1.86,3.59h-3.27c-.05-.66-.37-1.22-.94-1.69-.57-.47-1.32-.7-2.26-.7-.85,0-1.54.22-2.08.65-.54.43-.8,1.06-.8,1.87,0,.55.17,1.01.51,1.36s.77.64,1.29.84c.52.21,1.23.43,2.13.67,1.19.33,2.17.66,2.92.99.75.33,1.39.83,1.92,1.52.53.68.79,1.6.79,2.74,0,.92-.25,1.78-.74,2.6-.49.81-1.21,1.47-2.15,1.96-.94.49-2.06.74-3.34.74-1.21,0-2.3-.21-3.27-.64Z"/>
    <path d="M702.18,611.09v18.04h-2.96v-12.35l-5.5,12.35h-2.05l-5.53-12.35v12.35h-2.96v-18.04h3.19l6.33,14.14,6.31-14.14h3.17Z"/>
    <path d="M714.85,628.13c-1.41-.79-2.53-1.89-3.35-3.3s-1.23-3-1.23-4.76.41-3.35,1.23-4.75,1.94-2.5,3.35-3.28,2.96-1.18,4.63-1.18,3.25.39,4.66,1.18c1.41.79,2.52,1.88,3.33,3.28s1.22,2.98,1.22,4.75-.41,3.35-1.22,4.76-1.92,2.51-3.33,3.3c-1.41.79-2.96,1.18-4.66,1.18s-3.22-.39-4.63-1.18ZM722.68,625.92c.93-.54,1.66-1.32,2.19-2.34.53-1.01.79-2.18.79-3.52s-.26-2.5-.79-3.5c-.53-1-1.26-1.77-2.19-2.31-.94-.54-2-.8-3.19-.8s-2.26.27-3.19.8c-.94.54-1.67,1.31-2.19,2.31s-.79,2.17-.79,3.5.26,2.5.79,3.52c.53,1.01,1.26,1.79,2.19,2.34.93.54,2,.82,3.19.82s2.26-.27,3.19-.82Z"/>
    <path d="M759.68,612.19c1.45.74,2.56,1.79,3.35,3.17.79,1.38,1.18,2.98,1.18,4.81s-.39,3.43-1.18,4.78c-.79,1.35-1.9,2.38-3.35,3.1-1.44.72-3.13,1.08-5.05,1.08h-5.89v-18.04h5.89c1.92,0,3.6.37,5.05,1.1ZM759.48,625c1.12-1.14,1.69-2.75,1.69-4.83s-.56-3.73-1.69-4.91-2.74-1.76-4.85-1.76h-2.93v13.21h2.93c2.11,0,3.73-.57,4.85-1.71Z"/>
    <path d="M775.29,611.09v18.04h-2.96v-18.04h2.96Z"/>
    <path d="M815.31,611.09v18.04h-2.96v-12.35l-5.5,12.35h-2.05l-5.53-12.35v12.35h-2.96v-18.04h3.19l6.33,14.14,6.31-14.14h3.17Z"/>
    <path d="M827.35,613.48v5.29h6.23v2.41h-6.23v5.53h7.01v2.41h-9.97v-18.06h9.97v2.41h-7.01Z"/>
    <path d="M854.12,612.19c1.45.74,2.56,1.79,3.35,3.17.79,1.38,1.18,2.98,1.18,4.81s-.39,3.43-1.18,4.78-1.9,2.38-3.35,3.1-3.13,1.08-5.05,1.08h-5.89v-18.04h5.89c1.92,0,3.6.37,5.05,1.1ZM853.93,625c1.12-1.14,1.69-2.75,1.69-4.83s-.56-3.73-1.69-4.91-2.74-1.76-4.85-1.76h-2.93v13.21h2.93c2.11,0,3.73-.57,4.85-1.71Z"/>
    <path d="M869.73,611.09v18.04h-2.96v-18.04h2.96Z"/>
    <path d="M889.69,625.44h-7.55l-1.3,3.69h-3.09l6.46-18.06h3.43l6.46,18.06h-3.12l-1.3-3.69ZM888.86,623.03l-2.93-8.38-2.96,8.38h5.89Z"/>
    <path d="M904.95,626.56h8.38v2.57h-11.89v-2.31l8.36-13.16h-8.36v-2.57h11.89v2.31l-8.38,13.16Z"/>
    <path d="M924.73,611.09v18.04h-2.96v-18.04h2.96Z"/>
    <path d="M937.41,628.13c-1.41-.79-2.53-1.89-3.35-3.3s-1.23-3-1.23-4.76.41-3.35,1.23-4.75,1.94-2.5,3.35-3.28,2.96-1.18,4.63-1.18,3.25.39,4.66,1.18c1.41.79,2.52,1.88,3.33,3.28s1.22,2.98,1.22,4.75-.41,3.35-1.22,4.76-1.92,2.51-3.33,3.3c-1.41.79-2.96,1.18-4.66,1.18s-3.22-.39-4.63-1.18ZM945.23,625.92c.93-.54,1.66-1.32,2.19-2.34.53-1.01.79-2.18.79-3.52s-.26-2.5-.79-3.5c-.53-1-1.26-1.77-2.19-2.31-.94-.54-2-.8-3.19-.8s-2.26.27-3.19.8c-.94.54-1.67,1.31-2.19,2.31s-.79,2.17-.79,3.5.26,2.5.79,3.52c.53,1.01,1.26,1.79,2.19,2.34.93.54,2,.82,3.19.82s2.26-.27,3.19-.82Z"/>
    <path d="M974.17,629.13h-2.96l-8.9-13.47v13.47h-2.96v-18.06h2.96l8.9,13.44v-13.44h2.96v18.06Z"/>
    <path d="M986.21,613.48v5.29h6.23v2.41h-6.23v5.53h7.01v2.41h-9.97v-18.06h9.97v2.41h-7.01Z"/>
  </g>
</svg>