<svg xmlns="http://www.w3.org/2000/svg" version="1.1" xmlns:xlink="http://www.w3.org/1999/xlink" width="1000" height="1000"><g clip-path="url(#SvgjsClipPath1150)"><rect width="1000" height="1000" fill="#3aaeba"></rect><g transform="matrix(1.509694394720383,0,0,1.509694394720383,149.99999999999997,160.72637867448836)"><svg xmlns="http://www.w3.org/2000/svg" version="1.1" xmlns:xlink="http://www.w3.org/1999/xlink" width="463.67" height="449.46"><svg xmlns="http://www.w3.org/2000/svg" id="Livello_2" data-name="Livello 2" viewBox="308.17 339.15 463.67 449.46">
  <defs>
    <style>
      .cls-1 {
        fill: #fff;
      }
    </style>
  <clipPath id="SvgjsClipPath1150"><rect width="1000" height="1000" x="0" y="0" rx="200" ry="200"></rect></clipPath></defs>
  <path class="cls-1" d="M771.84,788.6h-53.44c-5.59-53.62-23.92-110.46-60.15-150.8-56.02,28.96-118.4,42.15-181.24,45.77v105.03h-51.59v-104.11l-3.11-2.42c-55.75-4.04-131.39-49.89-110.63-115,14.54-45.6,69.97-67.89,113.54-73.48,2.82-113.54,119.97-186.83,224.4-140.18,97.86,43.72,121.5,172.72,50.91,251.85,40.84,52.88,64.29,116.82,71.31,183.35ZM477.1,493.69c68.42,5.88,134.66,28.7,186.95,73.75,41.25-48.56,32.23-122.18-20.59-158.13-70.09-47.71-163.51,1.28-166.36,84.37ZM477.01,630.13c49.31-.81,99.3-10.8,143.69-32.25-42.16-31.23-92.11-45.72-143.69-52.52v84.76ZM425.41,547.21c-20.08,2.02-64.67,17.19-64.67,41.46,0,24.13,44.96,38.92,64.67,41.46v-82.92Z"></path>
</svg></svg></g></g></svg>